<svg xmlns="http://www.w3.org/2000/svg" width="364" height="724"><path fill-rule="evenodd" d="M4.442 126.528c-1.744-.151-1.763.23-1.978-.592-.415-3.436-.312-24.049.174-26.331.448-.153 1.26-.466 1.831-.032a3836.5 3836.5 0 0 1 .056-34.778c.06-10.887 1.554-21.841 4.479-29.306 3.174-8.097 5.69-12.29 13.032-19.421C33.537 5.488 53.261 2.446 66.273 2.446c50.226 0 181.135-.009 231.361-.009 15.77 0 25.151 2.881 29.984 4.855 12.486 5.35 22.338 14.721 27.47 27.901 4.51 11.583 4.504 22.337 4.504 40.128 0 27.999-.016 64.51-.016 92.509.709.237 1.399.67 2.108.906 0 27.496-.116 54.611-.116 81.901-.709.473-1.323.551-2.032 1.024 0 113.531-.02 296.912-.02 410.444-.616 28.742-11.14 42.538-27.941 52.07-6.584 3.736-18.393 7.43-36.415 7.43-26.893 0-84.943-.112-92.443-.112-1.533.028.732-.485-11.958-.44-5.003.018-15-.031-22.18-.053-5.422-.064-7.24.528-8.361.533l-37.248.002c-18.069 0-38.887-.028-55.782-.028-18.733-.249-33.498-4.341-44.056-13.115-11.981-11.981-18.834-21.918-18.711-53.169.007-106.7.14-279.4.11-385.994-.709-.473-1.502-1.21-2.211-1.683 0-16.775.191-33.379.191-50.154.429-.875 1.324-1.036 2.033-1.508 0-4.253-.094-8.605-.094-12.858-.709-.355-1.499-.203-1.977-1.156l-.002-50.325c.256-.906.86-.568 2.017-1.088 0-7.222-.044-14.968-.046-23.929zM61.899 23.135c-3.482 0-21.686.442-30.149 13.905-4.804 7.641-5.778 11.758-5.777 36.332V664.272c0 8.542 1.662 17.089 6.678 23.667 5.016 6.578 13.409 12.446 31.054 12.562 68.898-.118 170.88-.096 239.779-.214 8.701 0 16.139-2.097 21.776-6.396 3.603-2.747 6.272-5.973 8.627-10.072 3.991-6.945 4.51-12.282 4.51-26.107 0-30.704-.017-86.557-.017-117.273 0-72.973.139-174.254.139-259.972 0-66.463-.276-125.013-.276-133.855 0-20.068.165-53.951.165-78.652 0-22.86-3.313-26.345-5.99-30.655-6.15-9.897-17.687-13.797-29.083-13.797-6.301 0-23.794-.244-29.021-.244-4.711 0-4.853 2.688-4.853 7.016 0 5.903-4.122 12.429-9.722 15.827-3.166 1.605-6.487 2.364-18.549 2.364-26.354 0-100.325-.01-126.679-.01-7.908 0-12.5-3.29-15.413-7.119-3.663-4.815-4.27-8.87-4.27-11.477 0-3.81-.429-6.717-6.136-6.717-4.851 0-19.987-.013-26.793-.013z"/></svg>